<svg id="Livello_1" data-name="Livello 1" xmlns="http://www.w3.org/2000/svg" viewBox="0 0 141 44"><defs><style>.cls-1{fill:none;}.cls-2{fill:#55e6a5;}.cls-3{fill:#fff;}</style></defs><rect class="cls-1" x="-14" y="-7" width="147" height="41"/><path class="cls-2" d="M29.24,28.06,16,25q-5.06,3.26-5.66,4.29a3.28,3.28,0,0,1-1.88,1.25,7.65,7.65,0,0,1-2.09.5c-1.19,0-1.79-.21-1.79-.64,0-.25.71-.94,2.13-2.09a59.62,59.62,0,0,1,5.85-4.07c-1.38-.27-2.24-.44-2.57-.53s-.45-.26-.38-.5.48-.64,1.23-1.17a11.83,11.83,0,0,1,1.47-.93,4.94,4.94,0,0,1,1.16-.38,10.42,10.42,0,0,1,1.41-.19L19,20.31c1.85-1.17,3.86-2.45,6-3.81l5.08-3.19c-3.68.23-6.25.43-7.7.58l-3.89.36q-1.56.13-2.19.24c-.43.07-.64.18-.64.31s.26.2.78.25,1.16.06,1.95.06,1.39,0,1.83,0,.65.09.65.19-.29.18-.86.19-2.19.06-4.84.11c-1.5,0-2.76,0-3.78.07l-2.13,0A2.86,2.86,0,0,1,8,15.51a.69.69,0,0,1-.46-.61c0-.19.22-.54.67-1a8.58,8.58,0,0,1,1.9-1.54A10.06,10.06,0,0,1,13,11.12a44.73,44.73,0,0,1,5.57-1q3.78-.51,8.41-.84t9.16-.32c1.82,0,3.61.05,5.36.15s3.33.22,4.74.36,2.54.29,3.36.43a14.2,14.2,0,0,1,4.91,1.5c1.13.68,1.7,1.41,1.7,2.22a3.71,3.71,0,0,1-.86,2.28,8,8,0,0,1-2.64,2.07,18.11,18.11,0,0,1-4.27,1.54,58.74,58.74,0,0,1-6.19,1q-4.14.51-10,.91T19.08,22q5.42.9,10.11,1.8c3.13.6,5.76,1.13,7.91,1.6s3.82.85,5,1.14c1.71.42,2.83.73,3.34.91a1.78,1.78,0,0,1,1,.73,3.15,3.15,0,0,1,.25,1.47,3.74,3.74,0,0,1-.3,1.71,1.32,1.32,0,0,1-1.28.55,11.37,11.37,0,0,1-1.67-.32l-3.75-.94c-1.59-.42-3-.78-4.34-1.11S32.05,28.69,29.24,28.06Zm3.09-14.91c0,.07,0,.15.06.21a2.18,2.18,0,0,1,0,.28,1.64,1.64,0,0,1-.61,1.07A11.32,11.32,0,0,1,30.21,16c-.65.42-1.61,1-2.89,1.81l-3.53,2.17q7.38-.66,12.6-1.27T45,17.43a28.58,28.58,0,0,0,5.08-1.3c1.14-.46,1.71-.94,1.71-1.43s-1.19-1-3.57-1.3a69.08,69.08,0,0,0-8.74-.47l-2.23,0c-.79,0-1.72,0-2.81.1Z"/><path class="cls-3" d="M72.71,26H66.83l-1.11,2.77h6.62l-.33.81H63.4L66.48,22h8.24l-.33.79H68.14l-1,2.44H73Z"/><path class="cls-3" d="M74.68,29.58,77.76,22h2.18l3.7,4.3a10.53,10.53,0,0,1,1.42,2.12h.06A8.85,8.85,0,0,1,85.79,26l1.64-4h1.88l-3.08,7.6h-2l-3.68-4.3a9.74,9.74,0,0,1-1.5-2.19H79a18.27,18.27,0,0,1-.84,2.5l-1.6,4Z"/><path class="cls-3" d="M92.89,22.09a34.51,34.51,0,0,1,3.53-.17,10.39,10.39,0,0,1,3.86.56c.75.3,1.2.74,1.2,1.25,0,1.11-1.81,1.93-3.85,2.2v0c1.13.18,1.66.74,1.78,1.52a7.12,7.12,0,0,0,.51,2.1H97.86a8.78,8.78,0,0,1-.38-1.84c-.12-1-.94-1.48-2.55-1.48H93.17l-1.34,3.32h-2Zm.58,3.45h1.78c2.53,0,4.15-.78,4.15-1.69s-1.3-1.18-3.13-1.18a12.85,12.85,0,0,0-1.67.08Z"/><path class="cls-3" d="M107.44,22l-3.08,7.6h-2l3.08-7.6Z"/><path class="cls-3" d="M119.18,29.33a21.76,21.76,0,0,1-4.2.36c-4.08,0-6.57-1.21-6.57-3.15,0-1.43,1.24-2.8,3.46-3.66a16.47,16.47,0,0,1,6.09-1,13.12,13.12,0,0,1,3.51.36l-.64.76a13,13,0,0,0-3.18-.32,12,12,0,0,0-4.63.86c-1.53.66-2.48,1.73-2.48,2.89,0,1.36,1.32,2.48,4.92,2.48a16,16,0,0,0,3.45-.33Z"/><path class="cls-3" d="M135.75,25c0,1.31-1,2.77-2.95,3.67a13.33,13.33,0,0,1-5.54,1.06c-4.18,0-6.14-1.48-6.14-3.09,0-1.34,1.12-2.82,3.09-3.73a13.78,13.78,0,0,1,5.42-1C134,21.85,135.75,23.34,135.75,25ZM125.67,23.4a3.91,3.91,0,0,0-2.45,3.13c0,1.24,1.16,2.38,4.33,2.38a8.81,8.81,0,0,0,3.7-.76,3.91,3.91,0,0,0,2.4-3.14c0-1.08-.75-2.37-4.28-2.37A8.88,8.88,0,0,0,125.67,23.4Z"/><text/></svg>